<?xml version="1.0" standalone="no"?>
<!DOCTYPE svg PUBLIC "-//W3C//DTD SVG 20010904//EN"
 "http://www.w3.org/TR/2001/REC-SVG-20010904/DTD/svg10.dtd">
<svg version="1.0" xmlns="http://www.w3.org/2000/svg"
 width="62.000000pt" height="55.000000pt" viewBox="0 0 62.000000 55.000000"
 preserveAspectRatio="xMidYMid meet">

<g transform="translate(0.000000,55.000000) scale(0.100000,-0.100000)"
fill="#000000" stroke="none">
<path d="M163 318 c-62 -122 -111 -224 -108 -226 2 -2 33 12 69 32 60 34 68
42 112 123 l47 86 26 -50 26 -51 43 21 c23 12 41 24 40 27 -15 35 -134 260
-138 260 -3 0 -56 -100 -117 -222z"/>
<path d="M430 291 c9 -18 -9 -29 -191 -123 -157 -81 -204 -110 -221 -136 l-20
-32 47 0 c39 0 76 15 238 100 170 87 194 97 203 83 9 -14 17 -6 49 48 21 35
40 67 42 72 2 4 -32 7 -77 7 -76 0 -80 -1 -70 -19z"/>
<path d="M428 159 c-21 -11 -38 -24 -38 -30 0 -5 14 -36 30 -69 l30 -60 55 0
55 0 -45 90 c-25 50 -46 90 -48 90 -1 -1 -19 -10 -39 -21z"/>
</g>
</svg>
